<?xml version="1.0" standalone="no"?>
<!DOCTYPE svg PUBLIC "-//W3C//DTD SVG 20010904//EN"
 "http://www.w3.org/TR/2001/REC-SVG-20010904/DTD/svg10.dtd">
<svg version="1.0" xmlns="http://www.w3.org/2000/svg"
 width="700.000000pt" height="700.000000pt" viewBox="0 0 700.000000 700.000000"
 preserveAspectRatio="xMidYMid meet">
<metadata>
Created by potrace 1.11, written by Peter Selinger 2001-2013
</metadata>
<g transform="translate(0.000000,700.000000) scale(0.100000,-0.100000)"
fill="#000000" stroke="none">
<path d="M3250 5204 c-19 -2 -91 -9 -160 -15 -993 -87 -1968 -568 -2731 -1345
-153 -157 -299 -326 -299 -347 0 -23 170 -218 319 -367 530 -527 1135 -907
1803 -1130 393 -132 773 -197 1203 -207 589 -14 1133 82 1681 298 576 227
1138 605 1584 1065 122 127 290 325 290 344 0 19 -170 220 -300 354 -369 380
-826 708 -1303 936 -495 237 -1004 368 -1587 410 -125 9 -418 11 -500 4z
m1640 -1569 l0 -465 -105 0 -105 0 0 465 0 465 105 0 105 0 0 -465z m420 0 l0
-465 -105 0 -105 0 0 465 0 465 105 0 105 0 0 -465z m-4110 75 l0 -360 160 0
160 0 0 -85 0 -85 -265 0 -265 0 0 445 0 445 105 0 105 0 0 -360z m916 137
c89 -19 147 -57 176 -114 22 -46 23 -59 26 -305 l4 -258 -116 0 -116 0 0 30
c0 17 -2 30 -5 30 -2 0 -25 -13 -51 -30 -90 -57 -208 -63 -290 -15 -55 32 -82
71 -96 137 -20 98 20 176 113 224 59 29 114 42 237 53 51 5 95 11 99 14 12 12
-19 65 -45 77 -15 7 -64 15 -109 18 -64 3 -96 0 -151 -17 -39 -11 -75 -21 -81
-21 -7 0 -11 29 -11 80 0 69 2 80 18 81 9 0 49 7 87 14 91 17 234 18 311 2z
m953 -7 c22 -11 52 -35 68 -54 l29 -35 49 35 c85 61 130 77 212 71 90 -5 141
-36 175 -106 22 -44 23 -58 26 -314 l3 -268 -108 3 -108 3 -5 235 c-3 129 -9
240 -13 247 -21 33 -116 34 -182 2 l-30 -14 -3 -238 -2 -237 -105 0 -105 0 0
184 c0 208 -10 283 -41 309 -28 23 -90 22 -139 -3 l-40 -20 0 -235 0 -235
-110 0 -110 0 0 335 0 335 110 0 110 0 0 -36 0 -35 28 20 c103 73 212 92 291
51z m1258 -15 c48 -20 99 -69 126 -120 15 -30 21 -65 25 -142 l5 -103 -248 0
-247 0 6 -32 c26 -132 211 -174 393 -88 36 16 69 30 74 30 5 0 9 -40 9 -88 l0
-88 -52 -17 c-89 -27 -188 -39 -273 -32 -165 14 -276 74 -330 180 -28 55 -30
66 -30 169 0 101 2 116 28 168 50 102 159 174 285 186 81 9 176 -1 229 -23z
m1670 10 c163 -49 241 -210 202 -420 -36 -197 -201 -299 -427 -266 -135 20
-210 72 -261 180 -23 50 -26 68 -26 171 0 106 2 120 28 172 46 93 134 159 239
177 65 12 180 5 245 -14z"/>
<path d="M1973 3470 c-46 -10 -84 -27 -95 -44 -4 -6 -8 -30 -8 -53 0 -32 5
-46 22 -57 31 -22 114 -20 166 4 l42 19 0 71 0 70 -42 -1 c-24 -1 -62 -5 -85
-9z"/>
<path d="M4058 3704 c-30 -16 -58 -61 -58 -94 0 -19 6 -20 135 -20 149 0 148
-1 121 65 -8 19 -28 41 -45 49 -38 20 -117 20 -153 0z"/>
<path d="M5803 3703 c-30 -6 -70 -55 -83 -101 -14 -53 -12 -187 4 -225 22 -52
50 -70 114 -74 112 -8 154 47 154 202 1 102 -15 153 -56 180 -27 18 -94 27
-133 18z"/>
</g>
</svg>
