<?xml version="1.0" standalone="no"?><!-- Generator: Adobe Fireworks CS6, Export SVG Extension by Aaron Beall (http://fireworks.abeall.com) . Version: 0.6.1  --><!DOCTYPE svg PUBLIC "-//W3C//DTD SVG 1.1//EN" "http://www.w3.org/Graphics/SVG/1.1/DTD/svg11.dtd"><svg id="Untitled-Page%201" viewBox="0 0 16 9" style="background-color:#ffffff00" version="1.1"	xmlns="http://www.w3.org/2000/svg" xmlns:xlink="http://www.w3.org/1999/xlink" xml:space="preserve"	x="0px" y="0px" width="16px" height="9px">	<path d="M 0.1522 0.9598 C -0.0507 0.744 -0.0507 0.3813 0.1522 0.1655 C 0.252 0.0602 0.3868 0.0018 0.5295 0.0018 C 0.6705 0.0018 0.8052 0.0602 0.9067 0.1655 L 7.9985 7.6458 L 15.0902 0.1655 C 15.19 0.0602 15.3248 0 15.4691 0 C 15.6101 0 15.7432 0.0586 15.8431 0.1622 C 15.9445 0.2676 16 0.4096 16 0.5618 C 16 0.7123 15.9445 0.8527 15.8447 0.958 L 8.3757 8.8345 C 8.2758 8.9398 8.1412 9 7.9985 9 C 7.8558 9 7.7211 8.9415 7.6227 8.8345 L 0.1522 0.9598 L 0.1522 0.9598 Z" fill="#666666"/></svg>