<?xml version="1.0" standalone="no"?><!-- Generator: Adobe Fireworks CS6, Export SVG Extension by Aaron Beall (http://fireworks.abeall.com) . Version: 0.6.1  --><!DOCTYPE svg PUBLIC "-//W3C//DTD SVG 1.1//EN" "http://www.w3.org/Graphics/SVG/1.1/DTD/svg11.dtd"><svg id="Untitled-Page%201" viewBox="0 0 20 20" style="background-color:#ffffff00" version="1.1"	xmlns="http://www.w3.org/2000/svg" xmlns:xlink="http://www.w3.org/1999/xlink" xml:space="preserve"	x="0px" y="0px" width="20px" height="20px">	<path d="M 6.1288 15.9828 C 7.0275 13.9976 7.9937 12.0833 9.0307 10.238 C 10.0671 8.3943 11.183 6.6438 12.3771 4.9863 C 13.5718 3.3291 14.4837 2.1925 15.1124 1.5771 C 15.7418 0.963 16.1771 0.6033 16.4171 0.4985 C 16.6577 0.3943 17.1907 0.2849 18.0144 0.1707 C 18.8384 0.0571 19.4028 0 19.7088 0 C 19.9032 0 20 0.0728 20 0.2183 C 20 0.3094 19.9654 0.3978 19.8962 0.4849 C 19.8264 0.5712 19.6255 0.7603 19.2928 1.0515 C 17.6195 2.5802 15.7791 4.8383 13.7724 7.8231 C 11.7653 10.808 10.0878 13.944 8.7375 17.2288 C 8.1925 18.5392 7.8173 19.3268 7.6146 19.5907 C 7.4106 19.8634 6.7688 20 5.6868 20 C 4.9097 20 4.445 19.9226 4.2928 19.7688 C 4.14 19.6138 3.8326 19.1921 3.3706 18.5024 C 2.6122 17.3506 1.7381 16.261 0.7487 15.2347 C 0.249 14.7172 0 14.3268 0 14.0635 C 0 13.7003 0.2711 13.3304 0.8157 12.9543 C 1.3604 12.5776 1.812 12.3893 2.1717 12.3893 C 2.633 12.3893 3.2004 12.6388 3.8734 13.1387 C 4.5473 13.6378 5.2985 14.5859 6.1288 15.9828 Z" fill="#2fcc7f"/></svg>