<svg id="" viewBox="0 0 64 64" style="background-color:#ffffff00" version="1.1"
	xmlns="http://www.w3.org/2000/svg" xmlns:xlink="http://www.w3.org/1999/xlink" xml:space="preserve"
	x="0px" y="0px" width="64px" height="64px"
>
	<path id="marker" d="M 32 7 C 22.0175 7 14 15.0343 14 24.8627 C 14 36.4072 29.0131 57 32 57 C 34.9869 57 50 36.4072 50 24.8627 C 50 15.0343 41.9825 7 32 7 L 32 7 L 32 7 ZM 32 34.9251 C 26.4192 34.9251 21.7817 30.4009 21.7817 24.7847 C 21.7817 19.2465 26.3406 14.6443 32 14.6443 C 37.5808 14.6443 42.2183 19.1685 42.2183 24.7847 C 42.2183 30.4009 37.5808 34.9251 32 34.9251 L 32 34.9251 L 32 34.9251 Z" fill="#ac1e36"/>
</svg>