<?xml version="1.0" standalone="no"?>
<!-- Generator: Adobe Fireworks 10, Export SVG Extension by Aaron Beall (http://fireworks.abeall.com) . Version: 0.6.0  -->
<!DOCTYPE svg PUBLIC "-//W3C//DTD SVG 1.1//EN" "http://www.w3.org/Graphics/SVG/1.1/DTD/svg11.dtd">
<svg id="" viewBox="0 0 15 16" style="background-color:#ffffff00" version="1.1"
	xmlns="http://www.w3.org/2000/svg" xmlns:xlink="http://www.w3.org/1999/xlink" xml:space="preserve"
	x="0px" y="0px" width="15px" height="16px"
>
	<path id="zoom" d="M 14.7188 14.3183 L 10.8281 10.3063 C 11.7422 9.2252 12.2578 7.7838 12.2578 6.2703 C 12.2578 2.8108 9.5156 0 6.1406 0 C 2.7656 0 0 2.8108 0 6.2703 C 0 9.7297 2.7422 12.5646 6.1172 12.5646 C 7.3125 12.5646 8.4141 12.2042 9.3516 11.6036 L 13.3594 15.7117 C 13.5469 15.9039 13.8047 16 14.0391 16 C 14.2734 16 14.5313 15.9039 14.7188 15.7117 C 15.0938 15.3033 15.0938 14.6787 14.7188 14.3183 L 14.7188 14.3183 L 14.7188 14.3183 ZM 6.1406 10.5706 C 3.8203 10.5706 1.9453 8.6487 1.9453 6.2703 C 1.9453 3.8919 3.8203 1.994 6.1406 1.994 C 8.4609 1.994 10.3359 3.9159 10.3359 6.2943 C 10.3359 8.6727 8.4375 10.5706 6.1406 10.5706 L 6.1406 10.5706 L 6.1406 10.5706 Z" fill="#ffffff"/>
</svg>